<?xml version="1.0" encoding="utf-8"?>
<svg viewBox="0 0 500 500" xmlns="http://www.w3.org/2000/svg">
  <g transform="matrix(0.1, 0, 0, -0.1, 50.311218, 454.23111)" fill="#000000" stroke="none">
    <path d="M2830 4078 c-91 -47 -144 -163 -122 -270 5 -26 6 -48 1 -48 -10 0 -44 -62 -169 -305 -57 -110 -125 -242 -151 -292 -35 -66 -47 -101 -44 -120 6 -35 55 -390 55 -398 0 -3 -99 -5 -219 -5 l-220 0 -6 43 c-3 23 -17 195 -30 382 -14 187 -28 374 -31 415 l-7 75 39 25 c112 74 121 287 15 383 -120 108 -293 16 -316 -168 -12 -90 26 -178 96 -223 36 -23 36 -25 43 -110 27 -349 56 -754 56 -789 l0 -43 -215 0 -215 0 0 181 0 181 -83 112 c-46 61 -132 179 -193 261 -135 186 -201 276 -217 295 -7 9 -12 49 -12 105 0 80 -3 95 -28 137 -42 71 -78 93 -159 93 -59 0 -70 -3 -105 -30 -126 -101 -124 -327 5 -402 54 -32 135 -36 177 -9 l25 16 98 -132 c54 -73 157 -215 230 -314 l132 -181 0 -157 0 -156 -260 0 c-167 0 -260 -4 -260 -10 0 -6 -56 -10 -149 -10 l-149 0 -218 -231 c-121 -127 -220 -239 -222 -249 -2 -10 5 -23 15 -28 10 -6 139 -105 287 -221 l270 -211 82 0 c135 0 128 11 142 -208 7 -103 23 -376 37 -607 22 -379 45 -707 49 -712 1 -1 244 -13 541 -27 297 -14 563 -28 590 -31 43 -4 839 -45 884 -45 9 0 57 56 111 131 52 72 130 179 173 238 149 204 159 220 153 249 -3 15 -17 194 -31 397 -14 204 -30 414 -35 469 -6 54 -10 109 -10 122 l0 24 219 0 219 0 -5 478 c-2 262 -6 482 -7 487 -2 7 -200 9 -579 6 -325 -2 -577 0 -577 5 0 13 -26 215 -40 315 l-13 85 153 295 c83 162 156 299 161 305 7 9 21 8 52 -3 131 -45 252 61 252 222 0 172 -135 280 -265 213z m-2087 -1690 c4 -46 7 -194 7 -330 l0 -248 -34 0 c-18 0 -46 -3 -62 -6 -25 -5 -46 8 -159 96 -72 56 -169 131 -217 168 -48 37 -87 72 -85 79 1 6 69 82 150 167 l149 156 122 0 123 0 6 -82z m2777 -227 l0 -309 -332 -6 c-183 -3 -767 -7 -1298 -8 l-965 -3 -3 308 c-1 169 -1 308 0 309 3 1 1463 12 2181 16 l417 2 0 -309z m-1112 -738 l2 -243 65 0 65 0 2 243 3 242 292 3 291 2 7 -107 c3 -60 10 -148 15 -198 5 -49 19 -228 31 -397 l21 -308 -64 -87 c-63 -88 -289 -397 -292 -399 0 -1 -154 7 -341 17 -187 10 -576 29 -865 43 -289 14 -550 29 -580 33 l-55 8 -7 85 c-4 47 -16 243 -27 435 -12 193 -28 459 -37 592 -9 134 -14 250 -10 258 5 13 37 15 238 13 l233 -3 3 -225 c1 -123 6 -228 11 -233 5 -5 35 -6 65 -3 l56 7 0 230 0 229 205 0 205 0 0 -137 c0 -76 3 -290 7 -475 l6 -338 65 0 65 0 -4 473 -4 472 135 6 c74 3 149 5 165 5 l30 -1 3 -242z" style="fill: rgb(255, 255, 255);"/>
  </g>
</svg>